<svg xmlns="http://www.w3.org/2000/svg" xmlns:xlink="http://www.w3.org/1999/xlink" id="Capa_1" x="0" y="0" version="1.1" viewBox="0 0 512 512" xml:space="preserve" style="enable-background:new 0 0 512 512"><g><circle style="fill:#303c42" cx="21.333" cy="469.333" r="21.333"/><circle style="fill:#303c42" cx="74.667" cy="416" r="32"/></g><circle style="fill:#e6e6e6" cx="74.667" cy="416" r="10.667"/><path style="fill:#303c42" d="M512,224c0-64.698-52.646-117.333-117.333-117.333c-5.914,0-11.777,0.602-17.592,1.477	C359.874,57.734,312.16,21.333,256,21.333c-36.993,0-71.513,15.855-95.836,43.457c-3.595-0.365-7.184-0.79-10.831-0.79	C92.362,64,46.079,109.017,43.211,165.289C17.223,182.486,0,211.904,0,245.333c0,44.507,30.585,81.686,71.738,92.51	c16.039,40.51,54.902,67.49,98.928,67.49c32.586,0,62.831-14.781,83.001-39.861C273.423,377.46,296.253,384,320,384	c37.654,0,72.737-16.376,97.115-44.876C471.098,328.613,512,281.016,512,224z"/><path style="fill:#e6e6e6" d="M394.667,320c-12.188,0-24.083-2.26-35.354-6.708c-5.375-2.146-11.688,0.51-13.833,5.99	c-2.167,5.479,0.521,11.677,6,13.844c10.768,4.267,22.108,6.38,33.638,7.315c-18.474,14.283-41.186,22.227-65.117,22.227	c-31.938,0-61.938-14.135-82.292-38.792c-3.771-4.552-10.542-5.188-15.021-1.438c-4.542,3.75-5.188,10.479-1.438,15.021	c4.661,5.641,9.858,10.667,15.296,15.361C220.41,372.469,196.445,384,170.667,384c-31.003,0-58.814-16.746-73.815-42.839	c5.475-0.454,9.815-4.901,9.815-10.495c0-5.896-4.771-10.667-10.667-10.667c-41.167,0-74.667-33.5-74.667-74.667	s33.5-74.667,74.667-74.667c5.896,0,10.667-4.771,10.667-10.667c0-5.896-4.771-10.667-10.667-10.667	c-10.682,0-20.783,2.161-30.388,5.396c7.497-39.445,42.117-69.396,83.721-69.396c16.875,0,33.188,4.917,47.188,14.208	c4.875,3.229,11.521,1.927,14.771-2.979c3.271-4.906,1.938-11.531-2.979-14.792c-7.397-4.914-15.393-8.618-23.659-11.525	C204.115,52.635,229.276,42.667,256,42.667c58.813,0,106.667,47.854,106.667,106.667c0,5.896,4.771,10.667,10.667,10.667	S384,155.229,384,149.333c0-6.983-0.714-13.788-1.794-20.47c4.128-0.535,8.285-0.863,12.461-0.863c52.938,0,96,43.063,96,96	S447.604,320,394.667,320z"/><path style="opacity:.1;enable-background:new" d="M394.667,128c-4.176,0-8.333,0.328-12.461,0.863	c0.063,0.388,0.044,0.799,0.104,1.189c43.542,9.094,76.357,47.745,76.357,93.948c0,47.669-35.013,87.023-80.617,94.445	c5.462,0.954,10.999,1.555,16.617,1.555c52.938,0,96-43.063,96-96S447.604,128,394.667,128z"/><path style="opacity:.1;enable-background:new" d="M220.159,335.415c-19.275,17.267-44.22,27.251-70.826,27.251	c-15.674,0-30.628-3.556-44.197-9.789C120.975,372.1,144.643,384,170.667,384c25.779,0,49.743-11.531,65.879-31.181	c-5.438-4.694-10.634-9.72-15.296-15.361C220.737,336.837,220.508,336.104,220.159,335.415z"/><path style="opacity:.1;enable-background:new" d="M348.376,331.109c-15.504,6.579-32.302,10.224-49.71,10.224	c-20.5,0-40.188-5.134-57.932-14.178c20.245,22.552,48.826,35.512,79.266,35.512c23.931,0,46.643-7.944,65.117-22.227	c-11.53-0.935-22.87-3.048-33.638-7.315C350.283,332.652,349.285,331.917,348.376,331.109z"/><path style="fill:#ffca28" d="M248.375,334.542c-0.923-1.115-2.034-1.978-3.238-2.616c1.536,1.517,3.18,2.891,4.796,4.303	C249.43,335.647,248.866,335.137,248.375,334.542z"/><linearGradient id="SVGID_1_" x1="-46.015" x2="-25.839" y1="637.453" y2="628.043" gradientTransform="matrix(21.3333 0 0 -21.3333 996.3334 13791.667)" gradientUnits="userSpaceOnUse"><stop offset="0" style="stop-color:#fff;stop-opacity:.2"/><stop offset="1" style="stop-color:#fff;stop-opacity:0"/></linearGradient><path style="fill:url(#SVGID_1_)" d="M21.333,448C9.563,448,0,457.573,0,469.333s9.563,21.333,21.333,21.333	s21.333-9.573,21.333-21.333S33.104,448,21.333,448z M74.667,384c-17.646,0-32,14.354-32,32c0,17.646,14.354,32,32,32	s32-14.354,32-32C106.667,398.354,92.313,384,74.667,384z M394.667,106.667c-5.914,0-11.777,0.602-17.592,1.477	C359.874,57.734,312.16,21.333,256,21.333c-36.993,0-71.513,15.855-95.836,43.457c-3.595-0.365-7.184-0.79-10.831-0.79	C92.362,64,46.079,109.017,43.211,165.289C17.223,182.486,0,211.904,0,245.333c0,44.507,30.585,81.686,71.738,92.51	c16.039,40.51,54.902,67.49,98.928,67.49c32.586,0,62.831-14.781,83.001-39.861C273.423,377.46,296.253,384,320,384	c37.654,0,72.737-16.376,97.115-44.876C471.098,328.613,512,281.016,512,224C512,159.302,459.354,106.667,394.667,106.667z"/></svg>